<svg xmlns="http://www.w3.org/2000/svg" viewBox="0 0 100 100">
  <defs>
    <clipPath id="usa-circle">
      <circle cx="50" cy="50" r="48"/>
    </clipPath>
  </defs>
  <g clip-path="url(#usa-circle)">
    <rect x="0" y="0" width="100" height="100" fill="#ffffff"/>
    <rect x="0" y="0" width="100" height="10" fill="#B22234"/>
    <rect x="0" y="20" width="100" height="10" fill="#B22234"/>
    <rect x="0" y="40" width="100" height="10" fill="#B22234"/>
    <rect x="0" y="60" width="100" height="10" fill="#B22234"/>
    <rect x="0" y="80" width="100" height="10" fill="#B22234"/>
    <rect x="0" y="0" width="45" height="55" fill="#3C3B6E"/>
    <g fill="#ffffff">
      <circle cx="10" cy="10" r="2.4"/>
      <circle cx="22" cy="10" r="2.4"/>
      <circle cx="34" cy="10" r="2.4"/>
      <circle cx="16" cy="20" r="2.4"/>
      <circle cx="28" cy="20" r="2.4"/>
      <circle cx="10" cy="30" r="2.4"/>
      <circle cx="22" cy="30" r="2.4"/>
      <circle cx="34" cy="30" r="2.4"/>
      <circle cx="16" cy="40" r="2.4"/>
      <circle cx="28" cy="40" r="2.4"/>
      <circle cx="10" cy="49" r="2.4"/>
      <circle cx="22" cy="49" r="2.4"/>
      <circle cx="34" cy="49" r="2.4"/>
    </g>
  </g>
  <circle cx="50" cy="50" r="48" fill="none" stroke="#1a1a2e" stroke-width="4"/>
</svg>
